<svg width="122" height="34" viewBox="0 0 122 34" fill="none" xmlns="http://www.w3.org/2000/svg">
<path d="M24.7508 19.1727C24.7508 20.1829 24.5579 21.1365 24.1719 22.0332C23.7973 22.9187 23.2751 23.6963 22.6054 24.366C21.947 25.0243 21.1695 25.5466 20.2726 25.9325C19.3872 26.3071 18.4393 26.4944 17.4291 26.4944C16.521 26.4944 15.6469 26.3354 14.8069 26.0177C13.9783 25.6998 13.2291 25.2344 12.5593 24.6214C11.8895 25.2344 11.1347 25.6998 10.2947 26.0177C9.45471 26.3354 8.5806 26.4944 7.67248 26.4944C6.6622 26.4944 5.70868 26.3071 4.8119 25.9325C3.92649 25.5466 3.14891 25.0243 2.47917 24.366C1.82079 23.6963 1.29862 22.9187 0.912672 22.0332C0.538069 21.1365 0.350769 20.1829 0.350769 19.1727V1.73678H5.23759V19.1727C5.23759 19.5132 5.30002 19.8367 5.42489 20.1433C5.54976 20.4384 5.72003 20.6995 5.9357 20.9265C6.16273 21.1422 6.42382 21.3124 6.71896 21.4373C7.01409 21.5622 7.33194 21.6246 7.67248 21.6246C8.01303 21.6246 8.33087 21.5622 8.62601 21.4373C8.92117 21.3124 9.17652 21.1422 9.3922 20.9265C9.6193 20.6995 9.79523 20.4384 9.92007 20.1433C10.0449 19.8367 10.1074 19.5132 10.1074 19.1727V1.73678H14.9942V19.1727C14.9942 19.5132 15.0566 19.8367 15.1815 20.1433C15.3064 20.4384 15.4766 20.6995 15.6923 20.9265C15.9193 21.1422 16.1804 21.3124 16.4755 21.4373C16.7707 21.5622 17.0886 21.6246 17.4291 21.6246C17.7696 21.6246 18.0875 21.5622 18.3826 21.4373C18.6778 21.3124 18.9331 21.1422 19.1488 20.9265C19.3759 20.6995 19.5518 20.4384 19.6767 20.1433C19.8129 19.8367 19.881 19.5132 19.881 19.1727V1.73678H24.7508V19.1727ZM46.0179 16.874C46.0179 18.2362 45.7738 19.5075 45.2856 20.6881C44.7975 21.8573 44.1335 22.8733 43.2935 23.736C42.4534 24.5873 41.4659 25.2628 40.3307 25.7622C39.207 26.2504 37.998 26.4944 36.704 26.4944C35.4212 26.4944 34.2123 26.2504 33.0771 25.7622C31.9533 25.2628 30.9657 24.5873 30.1144 23.736C29.2744 22.8733 28.6103 21.8573 28.1222 20.6881C27.6341 19.5075 27.3901 18.2362 27.3901 16.874C27.3901 15.4891 27.6341 14.2064 28.1222 13.0258C28.6103 11.8452 29.2744 10.8293 30.1144 9.97795C30.9657 9.11522 31.9533 8.43984 33.0771 7.95172C34.2123 7.46361 35.4212 7.21955 36.704 7.21955C37.998 7.21955 39.207 7.45226 40.3307 7.91767C41.4659 8.37172 42.4534 9.02447 43.2935 9.87578C44.1335 10.7158 44.7975 11.7317 45.2856 12.9237C45.7738 14.1042 46.0179 15.421 46.0179 16.874ZM41.3354 16.874C41.3354 16.1248 41.2104 15.4494 40.9608 14.8477C40.7223 14.2348 40.3931 13.7126 39.9732 13.2813C39.5532 12.8386 39.0594 12.5036 38.4918 12.2766C37.9355 12.0383 37.3396 11.9191 36.704 11.9191C36.0682 11.9191 35.4666 12.0383 34.899 12.2766C34.3428 12.5036 33.8547 12.8386 33.4347 13.2813C33.026 13.7126 32.7025 14.2348 32.4642 14.8477C32.2257 15.4494 32.1066 16.1248 32.1066 16.874C32.1066 17.5778 32.2257 18.2305 32.4642 18.8322C32.7025 19.4338 33.026 19.9559 33.4347 20.3986C33.8547 20.8413 34.3428 21.1932 34.899 21.4543C35.4666 21.704 36.0682 21.829 36.704 21.829C37.3396 21.829 37.9355 21.7097 38.4918 21.4713C39.0594 21.233 39.5532 20.8981 39.9732 20.4668C40.3931 20.0354 40.7223 19.5132 40.9608 18.9002C41.2104 18.2873 41.3354 17.6118 41.3354 16.874ZM53.2715 26.1538H48.589V0.664062H53.2715V16.7378L60.2015 7.95172H65.5481L59.5034 15.5458L65.5481 26.1538H60.2015L56.5066 19.5302L53.2715 23.8211V26.1538ZM74.0617 21.6927C74.2434 21.7494 74.425 21.7892 74.6066 21.8119C74.7882 21.8233 74.9698 21.829 75.1514 21.829C75.6055 21.829 76.0426 21.7664 76.4625 21.6416C76.8825 21.5168 77.2742 21.3408 77.6374 21.1138C78.012 20.8754 78.3412 20.5916 78.625 20.2624C78.9201 19.9219 79.1585 19.5473 79.3401 19.1386L82.7456 22.5611C82.3143 23.174 81.8148 23.7246 81.2472 24.2127C80.691 24.7008 80.0837 25.1152 79.4253 25.4557C78.7783 25.7962 78.0915 26.0517 77.365 26.2219C76.6499 26.4036 75.912 26.4944 75.1514 26.4944C73.8688 26.4944 72.6598 26.256 71.5247 25.7792C70.4008 25.3024 69.4133 24.6384 68.5619 23.7871C67.7219 22.9357 67.0578 21.9254 66.5697 20.7562C66.0816 19.5756 65.8375 18.2816 65.8375 16.874C65.8375 15.4323 66.0816 14.1156 66.5697 12.9237C67.0578 11.7317 67.7219 10.7158 68.5619 9.87578C69.4133 9.0358 70.4008 8.38308 71.5247 7.91767C72.6598 7.45226 73.8688 7.21955 75.1514 7.21955C75.912 7.21955 76.6555 7.31037 77.382 7.49199C78.1086 7.67361 78.7953 7.93469 79.4423 8.27524C80.1007 8.61578 80.7136 9.0358 81.2813 9.53526C81.8488 10.0234 82.3483 10.5739 82.7796 11.1869L74.0617 21.6927ZM76.4455 12.1064C76.2298 12.0269 76.0141 11.9758 75.7985 11.9531C75.5941 11.9304 75.3784 11.9191 75.1514 11.9191C74.5158 11.9191 73.9142 12.0383 73.3465 12.2766C72.7903 12.5036 72.3022 12.8329 71.8822 13.2642C71.4736 13.6955 71.1501 14.2178 70.9116 14.8307C70.6733 15.4323 70.5541 16.1135 70.5541 16.874C70.5541 17.0443 70.5598 17.2372 70.5711 17.4529C70.5939 17.6686 70.6222 17.8899 70.6563 18.1169C70.7017 18.3326 70.7528 18.5426 70.8095 18.747C70.8663 18.9513 70.94 19.1329 71.0309 19.2919L76.4455 12.1064ZM89.5229 33.101V28.4185L92.1104 28.4525C92.5646 28.4525 93.0013 28.3788 93.4215 28.2312C93.8417 28.0836 94.2279 27.8793 94.5793 27.6182C94.9428 27.3571 95.261 27.0449 95.533 26.6817C95.8059 26.3298 96.0265 25.9438 96.1973 25.5238C95.6865 25.7395 95.1643 25.9552 94.6307 26.1708C94.1085 26.3865 93.5802 26.4944 93.0467 26.4944C91.9229 26.4944 90.8672 26.2958 89.8803 25.8984C88.8926 25.5011 88.0243 24.9393 87.2745 24.2127C86.537 23.4749 85.9523 22.5838 85.5211 21.5394C85.101 20.4838 84.891 19.3032 84.891 17.9978V7.91767H89.5229V17.9978C89.5229 18.6448 89.6135 19.2124 89.7949 19.7006C89.9875 20.1773 90.243 20.5803 90.5612 20.9095C90.8785 21.2273 91.2482 21.4657 91.6675 21.6246C92.099 21.7835 92.5593 21.863 93.0467 21.863C93.5235 21.863 93.9725 21.7551 94.3918 21.5394C94.8234 21.3124 95.1982 21.0173 95.5156 20.654C95.8338 20.2908 96.084 19.8822 96.2653 19.4281C96.4467 18.9627 96.5373 18.4859 96.5373 17.9978V7.91767H101.22V23.8552C101.208 25.1379 100.959 26.3411 100.471 27.4649C99.9827 28.5888 99.3131 29.5707 98.4614 30.4106C97.6218 31.2507 96.6402 31.9147 95.5156 32.4029C94.3918 32.891 93.1888 33.135 91.9063 33.135L89.5229 33.101ZM112.033 21.6927C112.214 21.7494 112.395 21.7892 112.577 21.8119C112.759 21.8233 112.94 21.829 113.122 21.829C113.577 21.829 114.013 21.7664 114.434 21.6416C114.853 21.5168 115.245 21.3408 115.608 21.1138C115.983 20.8754 116.312 20.5916 116.596 20.2624C116.891 19.9219 117.129 19.5473 117.31 19.1386L120.717 22.5611C120.285 23.174 119.785 23.7246 119.218 24.2127C118.662 24.7008 118.054 25.1152 117.396 25.4557C116.749 25.7962 116.062 26.0517 115.336 26.2219C114.621 26.4036 113.883 26.4944 113.122 26.4944C111.839 26.4944 110.631 26.256 109.496 25.7792C108.372 25.3024 107.384 24.6384 106.532 23.7871C105.693 22.9357 105.029 21.9254 104.54 20.7562C104.052 19.5756 103.808 18.2816 103.808 16.874C103.808 15.4323 104.052 14.1156 104.54 12.9237C105.029 11.7317 105.693 10.7158 106.532 9.87578C107.384 9.0358 108.372 8.38308 109.496 7.91767C110.631 7.45226 111.839 7.21955 113.122 7.21955C113.883 7.21955 114.626 7.31037 115.352 7.49199C116.079 7.67361 116.766 7.93469 117.413 8.27524C118.072 8.61578 118.684 9.0358 119.252 9.53526C119.819 10.0234 120.319 10.5739 120.751 11.1869L112.033 21.6927ZM114.416 12.1064C114.201 12.0269 113.985 11.9758 113.769 11.9531C113.565 11.9304 113.349 11.9191 113.122 11.9191C112.487 11.9191 111.885 12.0383 111.318 12.2766C110.761 12.5036 110.273 12.8329 109.853 13.2642C109.444 13.6955 109.121 14.2178 108.883 14.8307C108.644 15.4323 108.525 16.1135 108.525 16.874C108.525 17.0443 108.531 17.2372 108.542 17.4529C108.565 17.6686 108.593 17.8899 108.627 18.1169C108.673 18.3326 108.723 18.5426 108.78 18.747C108.837 18.9513 108.911 19.1329 109.001 19.2919L114.416 12.1064Z" fill="white"/>
</svg>
